<?xml version="1.0" standalone="no"?>
<svg width="400" height="400" xmlns="http://www.w3.org/2000/svg">
<rect x="0" y="0" width="50" height="50" fill="wheat" />
<rect x="50" y="0" width="50" height="50" fill="saddlebrown" />
<circle cx="75" cy="25" r="20" fill="black" stroke="white" stroke-width="2" />
<rect x="100" y="0" width="50" height="50" fill="wheat" />
<rect x="150" y="0" width="50" height="50" fill="saddlebrown" />
<circle cx="175" cy="25" r="20" fill="black" stroke="white" stroke-width="2" />
<rect x="200" y="0" width="50" height="50" fill="wheat" />
<rect x="250" y="0" width="50" height="50" fill="saddlebrown" />
<circle cx="275" cy="25" r="20" fill="black" stroke="white" stroke-width="2" />
<rect x="300" y="0" width="50" height="50" fill="wheat" />
<rect x="350" y="0" width="50" height="50" fill="saddlebrown" />
<circle cx="375" cy="25" r="20" fill="black" stroke="white" stroke-width="2" />
<rect x="0" y="50" width="50" height="50" fill="saddlebrown" />
<circle cx="25" cy="75" r="20" fill="black" stroke="white" stroke-width="2" />
<rect x="50" y="50" width="50" height="50" fill="wheat" />
<rect x="100" y="50" width="50" height="50" fill="saddlebrown" />
<circle cx="125" cy="75" r="20" fill="black" stroke="white" stroke-width="2" />
<rect x="150" y="50" width="50" height="50" fill="wheat" />
<rect x="200" y="50" width="50" height="50" fill="saddlebrown" />
<circle cx="225" cy="75" r="20" fill="black" stroke="white" stroke-width="2" />
<rect x="250" y="50" width="50" height="50" fill="wheat" />
<rect x="300" y="50" width="50" height="50" fill="saddlebrown" />
<circle cx="325" cy="75" r="20" fill="black" stroke="white" stroke-width="2" />
<rect x="350" y="50" width="50" height="50" fill="wheat" />
<rect x="0" y="100" width="50" height="50" fill="wheat" />
<rect x="50" y="100" width="50" height="50" fill="saddlebrown" />
<circle cx="75" cy="125" r="20" fill="black" stroke="white" stroke-width="2" />
<rect x="100" y="100" width="50" height="50" fill="wheat" />
<rect x="150" y="100" width="50" height="50" fill="saddlebrown" />
<circle cx="175" cy="125" r="20" fill="black" stroke="white" stroke-width="2" />
<rect x="200" y="100" width="50" height="50" fill="wheat" />
<rect x="250" y="100" width="50" height="50" fill="saddlebrown" />
<circle cx="275" cy="125" r="20" fill="black" stroke="white" stroke-width="2" />
<rect x="300" y="100" width="50" height="50" fill="wheat" />
<rect x="350" y="100" width="50" height="50" fill="saddlebrown" />
<circle cx="375" cy="125" r="20" fill="black" stroke="white" stroke-width="2" />
<rect x="0" y="150" width="50" height="50" fill="saddlebrown" />
<rect x="50" y="150" width="50" height="50" fill="wheat" />
<rect x="100" y="150" width="50" height="50" fill="saddlebrown" />
<rect x="150" y="150" width="50" height="50" fill="wheat" />
<rect x="200" y="150" width="50" height="50" fill="saddlebrown" />
<rect x="250" y="150" width="50" height="50" fill="wheat" />
<rect x="300" y="150" width="50" height="50" fill="saddlebrown" />
<rect x="350" y="150" width="50" height="50" fill="wheat" />
<rect x="0" y="200" width="50" height="50" fill="wheat" />
<rect x="50" y="200" width="50" height="50" fill="saddlebrown" />
<circle cx="75" cy="225" r="20" fill="white" stroke="black" stroke-width="2" />
<rect x="100" y="200" width="50" height="50" fill="wheat" />
<rect x="150" y="200" width="50" height="50" fill="saddlebrown" />
<rect x="200" y="200" width="50" height="50" fill="wheat" />
<rect x="250" y="200" width="50" height="50" fill="saddlebrown" />
<rect x="300" y="200" width="50" height="50" fill="wheat" />
<rect x="350" y="200" width="50" height="50" fill="saddlebrown" />
<rect x="0" y="250" width="50" height="50" fill="saddlebrown" />
<rect x="50" y="250" width="50" height="50" fill="wheat" />
<rect x="100" y="250" width="50" height="50" fill="saddlebrown" />
<circle cx="125" cy="275" r="20" fill="white" stroke="black" stroke-width="2" />
<rect x="150" y="250" width="50" height="50" fill="wheat" />
<rect x="200" y="250" width="50" height="50" fill="saddlebrown" />
<circle cx="225" cy="275" r="20" fill="white" stroke="black" stroke-width="2" />
<rect x="250" y="250" width="50" height="50" fill="wheat" />
<rect x="300" y="250" width="50" height="50" fill="saddlebrown" />
<circle cx="325" cy="275" r="20" fill="white" stroke="black" stroke-width="2" />
<rect x="350" y="250" width="50" height="50" fill="wheat" />
<rect x="0" y="300" width="50" height="50" fill="wheat" />
<rect x="50" y="300" width="50" height="50" fill="saddlebrown" />
<circle cx="75" cy="325" r="20" fill="white" stroke="black" stroke-width="2" />
<rect x="100" y="300" width="50" height="50" fill="wheat" />
<rect x="150" y="300" width="50" height="50" fill="saddlebrown" />
<circle cx="175" cy="325" r="20" fill="white" stroke="black" stroke-width="2" />
<rect x="200" y="300" width="50" height="50" fill="wheat" />
<rect x="250" y="300" width="50" height="50" fill="saddlebrown" />
<circle cx="275" cy="325" r="20" fill="white" stroke="black" stroke-width="2" />
<rect x="300" y="300" width="50" height="50" fill="wheat" />
<rect x="350" y="300" width="50" height="50" fill="saddlebrown" />
<circle cx="375" cy="325" r="20" fill="white" stroke="black" stroke-width="2" />
<rect x="0" y="350" width="50" height="50" fill="saddlebrown" />
<circle cx="25" cy="375" r="20" fill="white" stroke="black" stroke-width="2" />
<rect x="50" y="350" width="50" height="50" fill="wheat" />
<rect x="100" y="350" width="50" height="50" fill="saddlebrown" />
<circle cx="125" cy="375" r="20" fill="white" stroke="black" stroke-width="2" />
<rect x="150" y="350" width="50" height="50" fill="wheat" />
<rect x="200" y="350" width="50" height="50" fill="saddlebrown" />
<circle cx="225" cy="375" r="20" fill="white" stroke="black" stroke-width="2" />
<rect x="250" y="350" width="50" height="50" fill="wheat" />
<rect x="300" y="350" width="50" height="50" fill="saddlebrown" />
<circle cx="325" cy="375" r="20" fill="white" stroke="black" stroke-width="2" />
<rect x="350" y="350" width="50" height="50" fill="wheat" />
</svg>