<?xml version="1.0" standalone="no"?>
<svg width="300" height="300" xmlns="http://www.w3.org/2000/svg">
<rect width="300" height="300" fill="white" />
<line x1="100" y1="0" x2="100" y2="300" stroke="black" stroke-width="5" />
<line x1="200" y1="0" x2="200" y2="300" stroke="black" stroke-width="5" />
<line x1="0" y1="100" x2="300" y2="100" stroke="black" stroke-width="5" />
<line x1="0" y1="200" x2="300" y2="200" stroke="black" stroke-width="5" />
<circle cx="50" cy="50" r="40" stroke="blue" stroke-width="5" fill="none" />
<line x1="120" y1="20" x2="180" y2="80" stroke="red" stroke-width="5" />
<line x1="180" y1="20" x2="120" y2="80" stroke="red" stroke-width="5" />
<circle cx="250" cy="50" r="40" stroke="blue" stroke-width="5" fill="none" />
<line x1="20" y1="120" x2="80" y2="180" stroke="red" stroke-width="5" />
<line x1="80" y1="120" x2="20" y2="180" stroke="red" stroke-width="5" />
<circle cx="150" cy="150" r="40" stroke="blue" stroke-width="5" fill="none" />
<circle cx="250" cy="150" r="40" stroke="blue" stroke-width="5" fill="none" />
<line x1="20" y1="220" x2="80" y2="280" stroke="red" stroke-width="5" />
<line x1="80" y1="220" x2="20" y2="280" stroke="red" stroke-width="5" />
<circle cx="150" cy="250" r="40" stroke="blue" stroke-width="5" fill="none" />
<line x1="220" y1="220" x2="280" y2="280" stroke="red" stroke-width="5" />
<line x1="280" y1="220" x2="220" y2="280" stroke="red" stroke-width="5" />
</svg>